# xmcd CD database file
#
# Track frame offsets:
#	150
#	18930
#	39525
#	53849
#	70951
#	85868
#	102912
#	118973
#	133757
#	153510
#	167857
#	181953
#	185809
#	200205
#	206588
#	230711
#	248232
#	272960
#
# Disc length: 3906 seconds
#
# Revision: 0
# Processed by: cddbd v1.5.1PL2 Copyright (c) Steve Scherf et al.
# Submitted via: CDex 1.51
#
DISCID=140f4012
DTITLE=Bert And Me - Life On A Dead End Street
DYEAR=1999
DGENRE=Blues
TTITLE0=Research
TTITLE1=Pastafari
TTITLE2=You Don't Know
TTITLE3=Last Night
TTITLE4=Got To Find Out
TTITLE5=House Of Cards
TTITLE6=Man In The Pool
TTITLE7=28 Tickets
TTITLE8=Missing Skink
TTITLE9=Marty's Ute
TTITLE10=Ancient Greece
TTITLE11=Bell St. Bugaloo
TTITLE12=Blue Guitar
TTITLE13=No One Is An Island
TTITLE14=Love
TTITLE15=Dance Like They Do
TTITLE16=Green Is Blue
TTITLE17=My Old Friends
EXTD=YEAR: 1999
EXTT0=
EXTT1=
EXTT2=
EXTT3=
EXTT4=
EXTT5=
EXTT6=
EXTT7=
EXTT8=
EXTT9=
EXTT10=
EXTT11=
EXTT12=
EXTT13=
EXTT14=
EXTT15=
EXTT16=
EXTT17=
PLAYORDER=
